<?xml version="1.0" standalone="no"?>
<!DOCTYPE svg PUBLIC "-//W3C//DTD SVG 20010904//EN"
 "http://www.w3.org/TR/2001/REC-SVG-20010904/DTD/svg10.dtd">
<svg version="1.0" xmlns="http://www.w3.org/2000/svg"
 width="1366.000000pt" height="510.000000pt" viewBox="0 0 1366.000000 510.000000"
 preserveAspectRatio="xMidYMid meet">

<g transform="translate(0.000000,510.000000) scale(0.100000,-0.100000)"
fill="#000000" stroke="none">
<path d="M11484 3954 c-142 -51 -217 -229 -155 -370 94 -212 384 -226 496 -23
26 47 30 64 30 134 0 63 -5 89 -22 121 -67 127 -215 185 -349 138z m146 -90
c97 -20 162 -172 106 -249 -13 -18 -16 -17 -57 18 -73 63 -96 38 -34 -37 32
-40 34 -45 19 -57 -20 -17 -130 -22 -157 -7 -86 45 -124 157 -82 238 40 78
114 112 205 94z m210 -174 c0 -5 -4 -10 -10 -10 -5 0 -10 5 -10 10 0 6 5 10
10 10 6 0 10 -4 10 -10z m-70 -164 c0 -3 -4 -8 -10 -11 -5 -3 -10 -1 -10 4 0
6 5 11 10 11 6 0 10 -2 10 -4z"/>
<path d="M5627 3923 c-4 -3 -7 -120 -7 -260 l0 -253 31 0 c22 0 40 10 63 35
19 19 42 35 53 35 25 0 73 -37 73 -55 0 -11 25 -15 118 -17 l117 -3 3 -232 c2
-182 0 -233 -10 -233 -7 0 10 -15 38 -34 67 -46 111 -97 148 -176 29 -60 31
-73 31 -170 0 -97 -2 -110 -31 -171 -35 -74 -88 -137 -141 -170 -19 -12 -31
-24 -26 -28 15 -10 23 -40 12 -47 -17 -10 -80 6 -73 18 5 8 1 9 -9 5 -10 -4
-46 -11 -80 -17 -117 -21 -237 16 -342 103 l-50 42 38 -44 c34 -41 37 -49 37
-108 0 -35 1 -63 3 -63 1 -1 142 -36 312 -79 l310 -79 23 29 c31 38 57 52 112
59 40 4 21 10 -170 54 -244 55 -275 64 -215 65 22 1 179 -31 348 -69 233 -53
312 -68 327 -60 30 16 102 12 136 -9 34 -21 44 -54 44 -146 0 -81 -6 -90 -65
-110 -68 -24 -119 -11 -164 41 -20 22 -43 37 -64 40 -28 5 -34 1 -49 -26 -18
-31 -85 -69 -122 -70 -11 0 -39 9 -62 21 -46 22 -84 81 -84 131 0 23 -7 27
-117 56 -109 29 -490 122 -499 122 -2 0 -4 -10 -4 -21 0 -17 -3 -19 -14 -10
-8 7 -36 11 -63 9 l-48 -3 0 -210 0 -210 63 0 62 0 0 -51 c0 -38 4 -53 16 -58
9 -3 233 -6 499 -6 401 0 486 -2 498 -14 10 -11 23 -12 58 -4 71 15 181 29
187 23 3 -3 -2 -5 -11 -5 -10 0 -17 -8 -17 -17 0 -14 2 -15 9 -4 5 7 10 9 12
3 3 -7 28 -5 74 4 40 8 118 13 180 12 192 -3 236 1 365 28 20 4 23 3 13 -7 -7
-7 -13 -15 -13 -18 0 -4 51 -5 113 -3 105 3 118 1 197 -27 96 -35 100 -36 100
-17 0 8 -12 17 -27 21 -16 4 -23 9 -17 12 6 2 64 -8 128 -22 133 -28 149 -30
144 -13 -4 12 -38 24 -98 34 -47 8 -51 14 -9 14 29 0 44 10 97 63 l63 64 -169
37 c-134 29 -175 34 -196 26 -15 -5 -29 -10 -30 -10 -2 0 -3 14 -4 31 -1 29 1
30 29 24 23 -5 66 9 203 67 169 71 174 74 182 107 11 44 31 50 46 14 l12 -28
4 28 c3 28 22 38 22 12 0 -19 14 -19 30 0 7 8 24 15 39 15 14 0 33 5 41 10 10
6 -74 10 -247 10 -169 0 -263 4 -263 10 0 6 104 10 293 10 l292 0 145 63 145
63 4 44 c3 40 8 49 55 86 61 48 118 127 147 203 28 74 31 91 32 186 1 66 -4
93 -27 153 -34 88 -99 179 -160 224 l-45 33 -1 90 0 91 -60 59 -60 59 0 266 0
266 -33 32 -33 32 -866 0 -867 0 -3 -60 c-2 -33 -7 -60 -13 -60 -5 0 -11 27
-13 60 l-3 60 -588 0 c-323 0 -591 -3 -594 -7z m737 -54 c52 -41 19 -129 -48
-129 -69 0 -103 87 -50 129 15 12 37 21 49 21 12 0 34 -9 49 -21z m-304 -29
c0 -5 7 -10 15 -10 17 0 22 -65 5 -75 -5 -3 -10 -31 -10 -61 0 -30 5 -54 10
-54 6 0 10 -15 10 -32 0 -49 -29 -58 -185 -58 -156 0 -185 9 -185 58 0 22 5
32 15 32 8 0 15 4 15 9 0 5 -7 11 -15 15 -9 3 -15 18 -15 36 0 18 6 33 15 36
8 4 15 10 15 15 0 5 -7 9 -15 9 -26 0 -19 63 8 76 28 15 317 18 317 4z m1900
-80 c0 -32 5 -62 10 -65 8 -5 7 -11 0 -20 -6 -8 -13 -57 -14 -109 l-3 -96 48
0 c53 0 55 3 37 47 l-13 30 -20 -23 c-27 -32 -35 -30 -35 11 0 34 0 34 40 30
l40 -4 0 53 c0 28 -5 57 -12 64 -9 9 -9 12 0 12 8 0 12 21 12 64 0 36 5 68 10
71 11 7 12 -4 11 -130 -1 -49 2 -108 5 -130 6 -37 7 -38 16 -16 12 33 21 20
13 -18 -4 -17 -13 -31 -21 -31 -8 0 -14 -7 -14 -15 0 -13 34 -15 245 -15 157
0 245 -4 245 -10 0 -6 -89 -10 -246 -10 l-245 0 3 -27 c2 -23 9 -29 33 -31 52
-5 85 -24 101 -56 13 -28 13 -29 0 -12 -40 49 -136 78 -136 41 0 -8 9 -15 21
-15 23 0 60 -18 71 -34 13 -19 9 -81 -8 -104 -11 -15 -25 -22 -50 -22 -27 0
-34 -4 -34 -20 0 -14 7 -20 23 -21 l22 -2 -22 -4 c-22 -4 -23 -8 -23 -114 0
-94 2 -109 16 -109 14 0 15 -2 3 -16 -8 -10 -19 -29 -26 -43 l-11 -26 -1 33
-1 33 -52 -3 -53 -3 -5 -120 c-5 -126 -12 -150 -56 -184 -28 -22 -104 -30
-104 -11 0 6 12 10 28 10 45 0 90 34 101 77 6 21 10 136 11 256 l0 217 -33 2
-32 1 33 4 c26 4 32 9 32 29 0 14 -5 23 -12 22 -9 -2 -14 18 -16 71 -3 69 -2
73 17 68 18 -4 19 1 20 54 l0 59 -75 0 c-43 0 -74 4 -74 10 0 6 32 10 75 10
l75 0 0 93 c0 59 -4 97 -12 105 -9 9 -9 15 0 24 7 7 12 30 12 53 0 22 3 50 6
62 11 40 24 14 24 -47z m-1022 -63 c6 -7 9 -23 5 -36 -4 -18 -12 -21 -37 -19
-31 3 -44 23 -32 54 7 18 50 18 64 1z m817 -22 c0 -28 -3 -30 -35 -30 -26 0
-36 5 -38 18 -7 34 6 48 40 45 29 -3 33 -6 33 -33z m452 5 c2 -16 0 -20 -5
-10 -8 17 -33 20 -44 5 -5 -6 -8 -3 -8 6 0 21 7 26 33 25 16 -1 23 -8 24 -26z
m103 19 c0 7 5 9 10 6 11 -7 14 -45 3 -45 -3 0 -15 7 -25 17 -17 15 -18 15
-18 -2 0 -15 -3 -16 -12 -7 -17 17 9 47 28 31 11 -9 14 -8 14 0z m130 -16 c0
-20 -3 -24 -9 -14 -5 8 -16 11 -30 6 -12 -4 -21 -2 -21 4 0 6 11 11 25 11 14
0 25 5 25 10 0 6 2 10 5 10 3 0 5 -12 5 -27z m115 2 c0 -22 -31 -33 -47 -17
-17 17 -1 44 24 40 15 -2 23 -10 23 -23z m-1829 1 c18 -18 19 -96 2 -96 -10 0
-10 -2 -1 -8 6 -4 11 -23 10 -43 -1 -36 -2 -36 -29 -27 -34 12 -36 24 -6 34
22 7 22 7 2 14 -17 7 -21 17 -22 74 -2 54 1 66 14 66 8 0 22 -6 30 -14z m123
-18 c-2 -18 -7 -39 -12 -45 -6 -8 -6 -13 1 -13 5 0 9 -17 9 -37 -2 -31 -6 -38
-22 -38 -14 0 -21 7 -22 25 -1 14 0 18 3 8 3 -10 13 -18 22 -17 11 0 12 2 5 6
-7 2 -13 11 -13 18 0 7 -6 15 -12 18 -10 3 -10 7 1 20 9 11 10 17 2 17 -6 0
-11 16 -11 35 0 31 3 35 26 35 23 0 25 -4 23 -32z m971 20 c0 6 9 12 21 12 14
0 19 -5 17 -17 -5 -26 -52 -24 -56 2 -3 16 -1 17 7 5 7 -10 11 -11 11 -2z
m-424 -19 c126 -23 228 -102 282 -217 23 -49 27 -70 27 -152 0 -82 -4 -103
-27 -152 -34 -74 -113 -152 -186 -186 -75 -34 -193 -42 -278 -18 -327 93 -368
537 -63 691 41 21 95 35 175 44 6 0 37 -4 70 -10z m444 -45 c0 -14 -4 -23 -10
-19 -5 3 -10 15 -10 26 0 10 5 19 10 19 6 0 10 -12 10 -26z m350 6 c0 -11 -4
-20 -10 -20 -5 0 -10 9 -10 20 0 11 5 20 10 20 6 0 10 -9 10 -20z m245 10 c3
-6 0 -17 -8 -25 -13 -12 -17 -13 -27 0 -6 8 -9 19 -5 25 8 13 32 13 40 0z
m109 -7 c8 -21 -10 -41 -24 -27 -11 11 -3 44 10 44 4 0 11 -8 14 -17z m-1559
-63 c-13 -14 -31 -20 -62 -20 -27 0 -42 4 -38 10 3 6 26 10 50 10 30 0 45 5
49 16 4 9 9 14 13 10 3 -3 -2 -15 -12 -26z m1442 21 c10 9 13 6 13 -12 0 -20
-5 -24 -30 -25 -25 -1 -29 2 -25 20 2 12 4 23 4 26 1 2 6 -1 13 -8 8 -8 15 -9
25 -1z m118 -1 c13 11 15 5 15 -44 0 -56 0 -56 -31 -56 -26 0 -30 3 -27 23 2
12 10 22 18 22 8 0 15 5 15 10 0 6 -8 9 -17 8 -13 -2 -18 4 -18 23 0 22 2 25
15 14 12 -10 18 -10 30 0z m-750 -30 c3 -5 1 -10 -4 -10 -6 0 -11 5 -11 10 0
6 2 10 4 10 3 0 8 -4 11 -10z m369 -5 c9 24 26 8 26 -26 0 -27 -19 -43 -21
-16 0 10 -2 10 -6 0 -2 -7 -13 -13 -24 -13 -15 0 -19 7 -19 37 0 35 1 35 19
19 17 -15 19 -15 25 -1z m126 -35 c0 -16 -4 -32 -10 -35 -6 -4 -10 10 -10 35
0 25 4 39 10 35 6 -3 10 -19 10 -35z m139 14 c7 4 11 -1 11 -12 0 -16 -5 -19
-22 -14 -15 4 -19 2 -13 -8 5 -8 3 -11 -6 -8 -8 3 -16 13 -17 23 -5 20 19 39
29 23 4 -6 12 -7 18 -4z m-174 -4 c-3 -5 -15 -10 -26 -10 -10 0 -19 5 -19 10
0 6 12 10 26 10 14 0 23 -4 19 -10z m-345 -25 c0 -3 -17 -5 -37 -5 -34 0 -35
1 -18 14 18 13 55 6 55 -9z m-1062 -132 c-4 -39 -28 -42 -28 -4 0 21 5 31 16
31 11 0 14 -8 12 -27z m-78 2 c0 -8 5 -15 10 -15 6 0 10 -4 10 -10 0 -5 -9
-10 -20 -10 -15 0 -20 7 -20 25 0 14 5 25 10 25 6 0 10 -7 10 -15z m1118 8
c-16 -2 -40 -2 -55 0 -16 2 -3 4 27 4 30 0 43 -2 28 -4z m-8 -99 c0 -70 -12
-94 -48 -94 l-27 1 28 15 c25 13 27 19 27 74 0 33 4 60 10 60 6 0 10 -25 10
-56z m350 -4 c0 -11 -2 -20 -4 -20 -2 0 -6 9 -9 20 -3 11 -1 20 4 20 5 0 9 -9
9 -20z m-16 -79 c-15 -26 -74 -70 -74 -56 0 8 73 82 83 84 5 0 1 -12 -9 -28z
m477 -24 c26 -20 40 -55 33 -82 -7 -30 -12 -30 -89 -6 -67 21 -74 38 -29 79
28 24 60 28 85 9z m-1843 -24 c-4 -39 -28 -42 -28 -4 0 21 5 31 16 31 11 0 14
-8 12 -27z m1592 -3 l0 -30 -80 0 -80 0 0 30 0 30 80 0 80 0 0 -30z m87 17 c6
-4 14 -1 16 5 3 7 6 1 6 -13 1 -24 -2 -26 -49 -28 -43 -1 -50 1 -50 17 0 10 3
22 6 25 8 8 55 4 71 -6z m-1751 -21 c1 -15 -4 -22 -17 -22 -11 0 -18 6 -16 15
1 7 -4 16 -10 18 -8 3 -13 -5 -14 -19 -1 -20 -2 -21 -6 -3 -3 11 -10 23 -17
27 -6 5 9 7 34 6 38 -1 45 -4 46 -22z m-42 -109 c-1 -9 3 -14 8 -11 5 3 7 12
4 19 -3 9 2 13 15 12 11 -1 17 -7 15 -13 -2 -6 0 -16 5 -21 6 -6 -3 -10 -26
-11 -21 -1 -35 3 -35 11 0 8 -4 7 -10 -3 -8 -12 -10 -9 -10 13 0 22 4 28 18
25 9 -2 16 -11 16 -21z m116 -2 c0 -16 -6 -25 -15 -25 -9 0 -15 9 -15 25 0 16
6 25 15 25 9 0 15 -9 15 -25z m1418 -126 c15 -1 15 -2 0 -6 -10 -2 -19 -14
-19 -26 -2 -22 -2 -22 -6 1 -3 14 -12 22 -26 23 l-22 0 23 9 c12 5 23 17 23
27 1 13 3 11 6 -4 2 -13 12 -24 21 -24z m-760 14 c-22 -5 -24 -33 -3 -33 8 0
15 -4 15 -10 0 -5 -18 -10 -40 -10 -22 0 -40 5 -40 10 0 6 7 10 15 10 21 0 19
28 -2 33 -10 3 2 5 27 5 25 0 37 -2 28 -5z m213 -42 l29 -29 0 -162 c0 -162
-5 -191 -39 -217 -28 -22 -76 -15 -105 13 l-26 27 0 171 c1 177 3 190 45 214
33 19 65 13 96 -17z m-706 -21 c0 -23 -4 -25 -48 -28 -35 -2 -49 1 -53 12 -13
34 4 47 53 44 44 -3 48 -5 48 -28z m-211 14 c29 -4 46 -12 46 -20 0 -11 -25
-14 -119 -14 -114 0 -141 6 -126 30 7 11 127 13 199 4z m267 -3 c7 11 9 10 9
-3 0 -9 -4 -20 -10 -23 -5 -3 -10 -4 -10 -1 0 2 -2 10 -3 18 -2 7 -2 9 1 4 2
-4 8 -2 13 5z m33 -12 c-3 -6 0 -15 7 -20 9 -6 10 -9 2 -9 -15 0 -26 17 -18
30 3 6 8 10 11 10 3 0 2 -5 -2 -11z m413 -39 c3 -25 3 -25 -7 -2 -5 12 -18 22
-30 22 -12 0 -24 -9 -30 -22 -8 -22 -9 -22 -9 -2 -1 29 8 35 44 32 24 -2 30
-8 32 -28z m-877 -37 c2 -2 -2 -9 -10 -14 -11 -7 -4 -9 25 -8 130 4 195 -1
195 -16 0 -12 -15 -15 -67 -16 -38 -1 -77 0 -87 1 -13 1 -17 -3 -13 -14 4 -9
-7 -26 -31 -45 -31 -25 -34 -30 -17 -31 11 0 31 7 44 17 22 15 25 15 36 0 9
-13 28 -17 74 -17 48 0 61 -3 61 -15 0 -12 -13 -15 -61 -15 -40 0 -65 -5 -75
-15 -14 -13 -8 -15 55 -15 41 0 71 -4 71 -10 0 -6 -71 -10 -192 -10 -106 0
-216 -3 -244 -6 -46 -6 -52 -4 -57 15 -3 13 -13 21 -26 21 -14 0 -21 6 -21 20
0 11 -9 48 -20 81 -19 56 -20 63 -5 78 8 10 12 21 8 25 -7 7 348 -4 357 -11z
m837 -40 c-3 -10 -5 -4 -5 12 0 17 2 24 5 18 2 -7 2 -21 0 -30z m-462 -3 c0
-23 -4 -25 -48 -28 -35 -2 -49 1 -53 12 -13 34 4 47 53 44 44 -3 48 -5 48 -28z
m58 0 c-3 -11 -7 -20 -8 -20 -1 0 -5 9 -8 20 -3 12 0 20 8 20 8 0 11 -8 8 -20z
m67 -5 c0 -16 -2 -17 -10 -5 -5 8 -10 10 -10 4 0 -6 -7 -11 -15 -11 -8 0 -15
9 -15 19 0 13 7 17 25 16 18 -2 25 -8 25 -23z m34 9 c-16 -13 -16 -15 -1 -10
9 3 17 2 17 -3 0 -15 -13 -21 -26 -10 -16 13 -7 39 14 39 13 0 12 -3 -4 -16z
m280 -49 c-8 -20 5 -19 27 1 10 9 23 13 28 9 14 -8 14 -45 1 -45 -5 0 -7 7 -4
15 4 8 1 15 -5 15 -7 0 -14 -7 -17 -15 -4 -8 -15 -15 -25 -15 -14 0 -19 7 -19
25 0 14 4 25 10 25 5 0 7 -7 4 -15z m-704 -10 c0 -8 -2 -15 -4 -15 -2 0 -6 7
-10 15 -3 8 -1 15 4 15 6 0 10 -7 10 -15z m1789 0 c31 -16 41 -33 41 -71 0
-59 -56 -96 -110 -74 -67 28 -69 113 -5 148 27 15 41 15 74 -3z m-1521 -54 c4
-27 -12 -41 -50 -41 -41 0 -58 10 -58 34 0 32 9 37 60 34 39 -3 45 -6 48 -27z
m48 -11 c0 -11 -4 -20 -8 -20 -4 0 -8 9 -8 20 0 11 4 20 8 20 4 0 8 -9 8 -20z
m44 10 c-13 -9 -13 -11 0 -20 13 -8 12 -10 -2 -10 -11 0 -18 8 -18 20 0 12 7
20 18 20 14 0 15 -2 2 -10z m60 -15 c0 -17 -2 -17 -10 -5 -9 13 -11 13 -20 0
-8 -12 -10 -12 -10 5 0 14 6 21 20 21 14 0 20 -7 20 -21z m30 15 c-13 -9 -13
-11 0 -20 13 -8 12 -10 -2 -10 -11 0 -18 8 -18 20 0 12 7 20 18 20 14 0 15 -2
2 -10z m320 -14 c0 -23 -4 -25 -40 -23 -36 1 -38 3 -24 18 14 16 14 18 -3 22
-10 3 1 5 25 6 38 1 42 -1 42 -23z m-16 -42 c9 -3 16 -17 16 -30 0 -21 -5 -24
-39 -24 -44 0 -59 20 -35 45 16 16 33 19 58 9z m-489 -64 c0 -23 -4 -25 -48
-28 -35 -2 -49 1 -53 12 -13 34 4 47 53 44 44 -3 48 -5 48 -28z m58 23 c-7 -2
-13 -14 -12 -26 0 -21 1 -21 9 -2 8 19 9 19 9 -2 1 -26 -17 -31 -25 -8 -8 20
2 45 18 44 10 0 10 -2 1 -6z m102 -3 c8 -13 -4 -50 -16 -50 -13 0 -22 27 -15
45 6 17 22 20 31 5z m-325 -22 c0 -15 -12 -18 -97 -20 l-98 -3 93 -96 c50 -53
92 -104 92 -115 0 -13 -40 23 -120 106 -66 69 -118 131 -115 138 4 10 33 13
125 11 107 -3 120 -5 120 -21z m260 15 c0 -5 -5 -15 -10 -23 -8 -12 -10 -11
-10 8 0 12 5 22 10 22 6 0 10 -3 10 -7z m20 -14 c0 -11 -4 -18 -10 -14 -5 3
-7 12 -3 20 7 21 13 19 13 -6z m368 -15 c12 -4 22 -11 22 -16 0 -5 -10 -6 -21
-3 -13 5 -19 3 -15 -3 8 -13 -25 -25 -36 -14 -11 11 0 42 16 42 6 0 21 -3 34
-6z m-16 -86 c79 -36 120 -70 162 -131 159 -236 11 -549 -277 -583 -165 -19
-339 83 -398 234 -34 86 -33 208 3 284 48 103 143 185 247 215 74 21 195 12
263 -19z m348 -18 c0 -5 -11 -10 -25 -10 -14 0 -25 5 -25 10 0 6 11 10 25 10
14 0 25 -4 25 -10z m120 0 c0 -5 -16 -10 -35 -10 -19 0 -35 5 -35 10 0 6 16
10 35 10 19 0 35 -4 35 -10z m110 0 c0 -5 -16 -10 -35 -10 -19 0 -35 5 -35 10
0 6 16 10 35 10 19 0 35 -4 35 -10z m187 -92 c-2 -13 -4 -3 -4 22 0 25 2 35 4
23 2 -13 2 -33 0 -45z m-1847 32 c10 -7 -5 -10 -53 -10 -43 0 -66 4 -62 10 8
13 95 13 115 0z m1695 -11 c5 -7 -24 -9 -89 -8 -53 1 -96 5 -96 10 0 13 177
11 185 -2z m-1517 -131 c-3 -7 -13 -13 -23 -13 -10 0 -20 6 -22 13 -3 7 5 12
22 12 17 0 25 -5 23 -12z m112 -4 c0 -9 -7 -14 -17 -12 -25 5 -28 28 -4 28 12
0 21 -6 21 -16z m-112 -36 c-3 -7 -13 -13 -23 -13 -10 0 -20 6 -22 13 -3 7 5
12 22 12 17 0 25 -5 23 -12z m2 -44 c0 -10 -7 -14 -22 -12 -32 5 -35 28 -4 28
17 0 26 -5 26 -16z m110 1 c0 -8 -9 -15 -20 -15 -11 0 -20 7 -20 15 0 8 9 15
20 15 11 0 20 -7 20 -15z m1140 -75 c0 -5 -7 -10 -16 -10 -8 0 -12 5 -9 10 3
6 10 10 16 10 5 0 9 -4 9 -10z m115 0 c-3 -5 -19 -10 -36 -10 -16 0 -29 5 -29
10 0 6 16 10 36 10 21 0 33 -4 29 -10z m115 0 c0 -5 -13 -10 -29 -10 -17 0
-33 5 -36 10 -4 6 8 10 29 10 20 0 36 -4 36 -10z m120 0 c0 -5 -16 -10 -35
-10 -19 0 -35 5 -35 10 0 6 16 10 35 10 19 0 35 -4 35 -10z m115 0 c-3 -5 -19
-10 -36 -10 -16 0 -29 5 -29 10 0 6 16 10 36 10 21 0 33 -4 29 -10z m115 0 c0
-5 -13 -10 -29 -10 -17 0 -33 5 -36 10 -4 6 8 10 29 10 20 0 36 -4 36 -10z
m120 0 c0 -5 -16 -10 -35 -10 -19 0 -35 5 -35 10 0 6 16 10 35 10 19 0 35 -4
35 -10z m-422 -117 l10 -28 1 28 c1 27 14 36 26 17 5 -8 11 -7 21 1 12 9 14 5
14 -26 0 -37 0 -38 -20 -20 -11 10 -20 13 -20 7 0 -7 -18 -12 -44 -12 l-45 0
10 30 c14 37 34 39 47 3z m-1153 -79 c30 -39 28 -52 -4 -34 -15 7 -27 8 -40 0
-24 -12 -31 -13 -31 -2 0 5 11 15 25 22 32 17 32 30 -1 30 -14 0 -23 4 -19 10
13 20 43 9 70 -26z m1015 -44 c0 -12 -8 -12 -35 0 -18 8 -17 9 8 9 15 1 27 -3
27 -9z m-1030 -79 c20 -38 -13 -71 -51 -51 -18 10 -26 50 -12 63 13 14 53 6
63 -12z m818 -13 c4 -34 -27 -54 -58 -38 -39 21 -16 73 30 68 19 -2 26 -10 28
-30z m-1451 -50 c33 -30 31 -80 -3 -107 -35 -28 -69 -26 -99 4 -69 68 31 170
102 103z m1173 -33 c21 -26 6 -27 -71 -6 l-74 19 66 1 c48 1 70 -3 79 -14z
m161 -6 c-47 -21 -69 -17 -37 7 11 8 34 14 50 13 30 0 30 -1 -13 -20z m429
-11 c0 -5 -1 -8 -2 -8 -2 0 -66 -11 -142 -25 -134 -24 -226 -32 -213 -19 3 4
21 10 39 14 22 6 10 7 -34 3 -36 -3 -79 -2 -95 2 -21 7 3 12 107 25 138 17
340 21 340 8z m-556 -47 c18 -7 -171 -31 -245 -31 -58 0 -18 18 61 28 93 12
159 13 184 3z m121 -31 c3 -5 -3 -10 -13 -10 -11 0 -35 -3 -53 -7 -31 -6 -33
-5 -20 10 15 19 76 23 86 7z m-460 -10 c-11 -5 -33 -8 -50 -8 l-30 0 30 8 c17
4 39 8 50 8 l20 1 -20 -9z"/>
<path d="M5855 3755 c-52 -51 -17 -135 56 -135 69 0 97 89 43 138 -33 29 -69
28 -99 -3z"/>
<path d="M7950 3420 c0 -29 1 -30 50 -30 49 0 50 1 50 30 0 29 -1 30 -50 30
-49 0 -50 -1 -50 -30z"/>
<path d="M7950 3334 c0 -32 7 -56 25 -82 l25 -37 0 63 c0 35 4 62 10 62 6 0
10 -32 10 -75 0 -60 -3 -75 -15 -75 -8 0 -15 3 -15 8 0 4 -9 18 -20 32 -19 25
-19 25 -19 -142 l-1 -168 50 0 50 0 0 109 0 110 -32 4 -33 4 34 1 33 2 -7 43
c-8 54 -8 103 0 150 l7 37 -51 0 -51 0 0 -46z"/>
<path d="M8077 3323 c-4 -3 -7 -30 -7 -60 0 -62 15 -75 55 -49 32 21 36 89 6
106 -23 12 -45 13 -54 3z"/>
<path d="M7921 3284 c0 -11 3 -14 6 -6 3 7 2 16 -1 19 -3 4 -6 -2 -5 -13z"/>
<path d="M6884 3685 c-8 -20 4 -35 27 -35 16 0 18 3 10 19 -6 10 -7 21 -4 25
3 3 -1 6 -11 6 -9 0 -19 -7 -22 -15z"/>
<path d="M7700 3665 c0 -8 9 -15 19 -15 26 0 35 16 15 24 -25 10 -34 7 -34 -9z"/>
<path d="M8518 3683 c6 -2 18 -2 25 0 6 3 1 5 -13 5 -14 0 -19 -2 -12 -5z"/>
<path d="M6721 3644 c0 -11 3 -14 6 -6 3 7 2 16 -1 19 -3 4 -6 -2 -5 -13z"/>
<path d="M6810 3680 c0 -5 7 -10 15 -10 8 0 15 5 15 10 0 6 -7 10 -15 10 -8 0
-15 -4 -15 -10z"/>
<path d="M7213 3574 c-62 -23 -136 -94 -163 -156 -28 -65 -31 -164 -6 -222 97
-229 410 -246 523 -28 99 192 -26 408 -242 418 -46 3 -85 -2 -112 -12z m228
-79 c69 -48 84 -84 84 -195 0 -82 -3 -100 -23 -133 -33 -51 -98 -88 -172 -94
-217 -20 -335 262 -168 402 53 45 86 56 165 52 61 -2 78 -7 114 -32z"/>
<path d="M8465 3150 c4 -6 11 -8 16 -5 14 9 11 15 -7 15 -8 0 -12 -5 -9 -10z"/>
<path d="M7490 2614 c0 -8 5 -12 10 -9 6 4 8 11 5 16 -9 14 -15 11 -15 -7z"/>
<path d="M7458 2538 c5 -5 16 -8 23 -6 8 3 3 7 -10 11 -17 4 -21 3 -13 -5z"/>
<path d="M7150 2510 c0 -5 5 -10 10 -10 6 0 10 5 10 10 0 6 -4 10 -10 10 -5 0
-10 -4 -10 -10z"/>
<path d="M7270 2352 c-69 -9 -150 -59 -191 -118 -82 -120 -67 -275 38 -376
104 -100 272 -105 382 -12 65 56 93 113 99 200 6 93 -14 150 -75 215 -63 67
-163 103 -253 91z m107 -64 c59 -14 127 -78 142 -133 14 -50 14 -129 1 -177
-42 -151 -259 -192 -371 -71 -88 94 -88 232 1 321 64 64 137 83 227 60z"/>
<path d="M6884 1706 c-8 -21 3 -36 27 -36 15 0 20 6 17 22 -4 27 -35 37 -44
14z"/>
<path d="M7713 1703 c-7 -2 -13 -11 -13 -20 0 -21 44 -13 48 10 3 17 -10 21
-35 10z"/>
<path d="M3745 3386 c-16 -22 -37 -36 -53 -38 -23 -3 -27 -8 -30 -40 l-3 -38
-70 0 c-62 0 -69 -2 -69 -20 0 -14 -7 -20 -24 -20 -15 0 -26 7 -29 20 -5 18
-14 20 -76 20 -63 0 -71 -2 -71 -19 0 -17 -10 -19 -106 -23 -102 -3 -107 -4
-130 -31 -35 -41 -33 -99 5 -138 26 -26 36 -29 93 -29 87 0 138 -10 138 -26 0
-11 18 -14 75 -14 68 0 75 2 75 20 0 15 7 20 25 20 18 0 25 -5 25 -20 0 -18 7
-20 69 -20 l70 0 3 -37 c3 -33 7 -38 29 -41 17 -2 39 -18 58 -43 l32 -39 104
0 c63 0 105 4 105 10 0 6 9 10 20 10 11 0 20 -4 20 -10 0 -5 9 -10 20 -10 11
0 20 5 20 10 0 6 9 10 20 10 11 0 20 -4 20 -10 0 -5 9 -10 20 -10 11 0 20 5
20 10 0 6 9 10 20 10 11 0 20 -4 20 -10 0 -5 9 -10 20 -10 11 0 20 5 20 10 0
6 9 10 20 10 11 0 20 -4 20 -10 0 -14 26 -13 51 3 17 10 23 10 26 0 5 -15 53
-18 53 -3 0 6 7 10 15 10 8 0 15 -5 15 -10 0 -7 48 -10 137 -8 l136 3 1 293 1
292 -137 0 c-85 0 -138 -4 -138 -10 0 -5 -7 -10 -15 -10 -8 0 -15 5 -15 10 0
6 -11 10 -25 10 -14 0 -25 -4 -25 -10 0 -5 -7 -10 -15 -10 -8 0 -15 5 -15 10
0 15 -48 12 -53 -2 -3 -10 -10 -10 -31 2 -22 11 -31 12 -47 2 -15 -10 -23 -9
-39 0 -16 10 -24 10 -40 0 -16 -9 -24 -10 -39 0 -16 10 -25 9 -47 -2 -21 -12
-28 -12 -31 -2 -3 8 -35 12 -113 12 l-109 0 -26 -34z"/>
<path d="M11822 3370 c0 -19 2 -27 5 -17 2 9 2 25 0 35 -3 9 -5 1 -5 -18z"/>
<path d="M12020 3345 c0 -30 5 -55 10 -55 6 0 10 25 10 55 0 30 -4 55 -10 55
-5 0 -10 -25 -10 -55z"/>
<path d="M11894 3376 c-10 -27 1 -71 19 -74 14 -3 17 4 17 42 0 35 -4 46 -15
46 -9 0 -18 -6 -21 -14z"/>
<path d="M11960 3345 c0 -33 4 -45 15 -45 11 0 15 12 15 45 0 33 -4 45 -15 45
-11 0 -15 -12 -15 -45z"/>
<path d="M12163 3347 c0 -12 22 -17 106 -22 58 -3 126 -8 152 -11 l45 -5 -10
-45 c-9 -39 -14 -44 -38 -44 -24 0 -28 -4 -28 -27 0 -26 -6 -30 -80 -56 -141
-50 -265 -189 -301 -337 -18 -76 -16 -260 4 -335 l16 -60 -249 255 c-158 162
-257 271 -272 300 -20 40 -23 63 -26 216 -3 143 -6 171 -19 171 -13 0 -14 -24
-11 -171 3 -159 5 -175 29 -226 22 -46 107 -137 496 -530 l470 -475 -479 -3
c-528 -2 -520 -3 -550 58 -16 31 -18 67 -18 292 0 230 -2 257 -16 251 -14 -5
-15 -37 -12 -272 3 -295 5 -301 71 -341 31 -19 54 -20 545 -20 481 0 512 1
512 18 0 14 -2 15 -10 2 -6 -9 -10 -10 -10 -3 0 7 7 16 16 21 8 5 18 27 21 50
5 38 8 42 34 42 27 0 29 3 29 38 0 37 2 39 43 51 78 24 157 73 217 138 102
109 134 199 134 373 0 182 -35 273 -148 386 -69 69 -119 99 -207 126 -33 9
-39 15 -39 40 0 24 -4 28 -29 28 -26 0 -29 4 -35 40 -3 23 -13 43 -21 46 -8 4
-15 10 -15 16 0 5 5 6 12 2 6 -4 8 -3 5 3 -4 6 -51 13 -104 17 -54 3 -128 9
-164 12 -54 5 -66 3 -66 -9z m387 -197 l0 -30 -65 0 -65 0 0 30 0 30 65 0 65
0 0 -30z m45 -94 c90 -24 125 -46 125 -78 0 -26 3 -28 39 -28 35 0 44 -6 75
-43 145 -177 139 -434 -12 -598 -26 -27 -56 -51 -67 -53 -11 -2 -46 -18 -79
-35 -32 -17 -68 -31 -80 -31 -12 0 -31 -7 -42 -15 -25 -19 -113 -19 -138 0
-11 8 -30 15 -42 15 -12 0 -48 14 -80 31 -33 17 -68 33 -79 35 -30 5 -110 96
-139 158 -37 77 -49 148 -43 238 6 89 44 183 103 255 31 37 40 43 75 43 36 0
39 2 39 28 0 24 7 32 48 50 26 12 63 26 82 31 52 14 158 13 215 -3z m-205
-973 c0 -18 -1 -33 -3 -33 -1 0 -24 22 -51 49 l-47 48 50 -16 c48 -14 51 -17
51 -48z m160 2 c0 -24 -2 -25 -65 -25 -63 0 -65 1 -65 25 0 24 2 25 65 25 63
0 65 -1 65 -25z m-100 -70 c0 -14 -1 -25 -3 -25 -2 0 -14 11 -27 25 l-23 25
26 0 c22 0 27 -5 27 -25z"/>
<path d="M1164 3161 c-2 -2 -4 -9 -4 -15 0 -6 5 -4 10 4 6 10 10 11 10 3 0 -7
-9 -22 -20 -33 -11 -11 -20 -33 -20 -50 0 -27 -3 -30 -29 -30 -28 0 -30 -3
-33 -42 -3 -40 -5 -42 -53 -58 -88 -29 -128 -53 -192 -116 -82 -81 -129 -175
-144 -294 -37 -297 95 -526 354 -609 29 -10 37 -18 37 -37 0 -20 5 -24 28 -24
25 0 29 -5 38 -42 7 -33 14 -43 29 -43 15 0 22 10 29 43 9 37 13 42 38 42 23
0 28 4 28 24 0 19 8 27 38 37 166 53 292 180 337 338 21 73 27 179 16 270 -24
192 -147 348 -324 410 l-67 23 0 39 c0 37 -2 39 -30 39 -27 0 -30 3 -30 30 0
30 5 27 168 -108 92 -76 322 -266 512 -422 660 -542 602 -479 608 -667 4 -97
7 -123 20 -128 13 -5 14 11 10 123 -6 156 -21 196 -106 272 -31 28 -307 256
-612 507 -305 250 -564 464 -575 474 -20 19 -11 19 690 17 667 -3 712 -4 737
-21 43 -30 48 -61 48 -333 0 -156 4 -255 10 -259 6 -3 7 1 4 9 -3 9 -1 16 6
16 8 0 10 67 8 263 l-3 264 -28 36 c-18 24 -38 38 -60 42 -37 6 -1477 12
-1483 6z m76 -166 c0 -24 -2 -25 -65 -25 -63 0 -65 1 -65 25 0 24 2 25 65 25
63 0 65 -1 65 -25z m-4 -90 c4 -8 18 -15 34 -15 15 0 58 -15 96 -33 38 -19 81
-39 96 -45 36 -15 111 -118 139 -190 57 -149 25 -339 -76 -451 -32 -35 -43
-41 -76 -41 -37 0 -39 -2 -39 -31 0 -27 -6 -33 -57 -57 -53 -25 -69 -27 -178
-27 -109 0 -125 2 -177 27 -52 24 -58 30 -58 57 0 29 -2 31 -39 31 -33 0 -44
6 -76 41 -101 112 -133 302 -76 451 28 72 103 175 139 190 15 6 58 26 96 45
38 18 81 33 96 33 16 0 30 7 34 15 4 11 21 15 61 15 40 0 57 -4 61 -15z m4
-982 l0 -33 -65 0 -65 0 0 33 0 32 65 0 65 0 0 -32z"/>
<path d="M5803 2973 c9 -2 23 -2 30 0 6 3 -1 5 -18 5 -16 0 -22 -2 -12 -5z"/>
<path d="M5928 2973 c6 -2 18 -2 25 0 6 3 1 5 -13 5 -14 0 -19 -2 -12 -5z"/>
<path d="M5758 2963 c7 -3 16 -2 19 1 4 3 -2 6 -13 5 -11 0 -14 -3 -6 -6z"/>
<path d="M5978 2963 c7 -3 16 -2 19 1 4 3 -2 6 -13 5 -11 0 -14 -3 -6 -6z"/>
<path d="M5710 2950 c-8 -5 -10 -10 -5 -10 6 0 17 5 25 10 8 5 11 10 5 10 -5
0 -17 -5 -25 -10z"/>
<path d="M5607 2888 c-31 -24 -57 -46 -57 -51 0 -4 26 14 58 39 70 57 66 54
60 54 -3 0 -30 -19 -61 -42z"/>
<path d="M5524 2795 c-9 -14 -20 -22 -25 -19 -5 3 -9 -2 -9 -10 0 -25 13 -18
38 19 12 19 20 35 17 35 -2 0 -12 -11 -21 -25z"/>
<path d="M9848 2713 c12 -2 30 -2 40 0 9 3 -1 5 -23 4 -22 0 -30 -2 -17 -4z"/>
<path d="M10263 2700 c-45 -27 -58 -56 -54 -127 2 -35 51 -83 95 -93 122 -27
195 122 102 207 -42 39 -93 44 -143 13z m108 -40 c15 -8 19 -21 19 -58 0 -59
-12 -72 -65 -72 -53 0 -65 13 -65 72 0 34 5 50 18 57 22 13 68 14 93 1z"/>
<path d="M9753 2674 l-28 -25 33 22 c17 13 32 24 32 26 0 8 -11 1 -37 -23z"/>
<path d="M9940 2697 c0 -2 15 -14 33 -27 20 -15 27 -17 18 -6 -13 16 -51 41
-51 33z"/>
<path d="M9793 2670 c-45 -27 -65 -62 -65 -113 -1 -60 30 -110 82 -131 50 -20
60 -20 110 0 100 40 110 187 17 244 -41 25 -103 25 -144 0z"/>
<path d="M11210 2683 c-79 -6 -111 -14 -131 -34 -27 -27 -25 -80 4 -107 21
-19 34 -22 120 -22 88 0 97 2 108 21 24 45 -9 153 -45 147 -6 -1 -31 -3 -56
-5z"/>
<path d="M4463 2663 c9 -2 25 -2 35 0 9 3 1 5 -18 5 -19 0 -27 -2 -17 -5z"/>
<path d="M4389 2639 l-24 -20 30 17 c39 24 40 24 28 24 -6 0 -21 -9 -34 -21z"/>
<path d="M5461 2644 c0 -11 3 -14 6 -6 3 7 2 16 -1 19 -3 4 -6 -2 -5 -13z"/>
<path d="M4403 2620 c-100 -61 -76 -217 39 -252 111 -33 214 89 161 192 -38
74 -132 102 -200 60z"/>
<path d="M4585 2620 c10 -11 20 -20 23 -20 3 0 -3 9 -13 20 -10 11 -20 20 -23
20 -3 0 3 -9 13 -20z"/>
<path d="M10006 2627 c3 -10 9 -15 12 -12 3 3 0 11 -7 18 -10 9 -11 8 -5 -6z"/>
<path d="M9048 2624 c-20 -20 1 -24 117 -24 101 0 134 -4 175 -20 42 -16 74
-20 185 -20 83 0 135 -4 135 -10 0 -6 -55 -10 -146 -10 -98 0 -152 -4 -167
-12 -13 -8 -77 -15 -162 -18 -176 -6 -184 -24 -13 -28 95 -2 133 1 166 14 58
22 362 18 370 -5 3 -8 20 -30 40 -50 l35 -36 -32 38 c-36 44 -44 71 -40 131 2
24 1 42 -3 39 -5 -2 -8 -26 -8 -54 0 -37 -4 -49 -15 -49 -11 0 -15 13 -16 53
0 28 -3 46 -6 40 -3 -10 -42 -13 -144 -13 -114 0 -146 3 -172 17 -24 13 -63
18 -162 21 -71 2 -133 0 -137 -4z"/>
<path d="M4334 2585 c-9 -14 -15 -27 -13 -30 3 -2 12 10 21 26 21 36 15 39 -8
4z"/>
<path d="M5445 2581 c-3 -10 -1 -29 4 -42 9 -21 10 -19 10 19 1 45 -4 54 -14
23z"/>
<path d="M10022 2557 c-2 -54 -12 -78 -51 -122 l-26 -30 32 29 c41 37 55 73
50 127 l-4 44 -1 -48z"/>
<path d="M4622 2564 c9 -25 16 -30 35 -26 21 4 23 1 23 -37 l0 -41 144 0 c105
0 153 -4 179 -15 48 -20 301 -22 295 -2 -3 8 -45 13 -144 17 -84 3 -148 10
-161 18 -14 8 -68 12 -162 12 -87 0 -141 4 -141 10 0 6 51 10 133 10 108 0
143 4 191 21 47 16 80 20 170 18 82 -1 111 2 111 11 0 19 -269 14 -308 -6 -24
-13 -60 -15 -184 -12 -151 3 -155 4 -173 28 l-20 25 12 -31z"/>
<path d="M3977 2560 c-31 -25 -57 -69 -57 -99 0 -34 31 -87 60 -105 43 -25
103 -21 139 9 87 74 47 202 -66 212 -39 4 -53 1 -76 -17z m121 -42 c7 -7 12
-33 12 -58 0 -57 -12 -70 -65 -70 -53 0 -65 13 -65 72 0 34 5 50 18 57 24 14
85 14 100 -1z"/>
<path d="M2801 2533 c-12 -48 -9 -74 12 -106 15 -23 20 -25 84 -20 99 7 133
20 148 56 15 36 3 82 -25 97 -10 6 -62 10 -114 10 l-95 0 -10 -37z"/>
<path d="M4313 2505 c0 -22 2 -30 4 -17 2 12 2 30 0 40 -3 9 -5 -1 -4 -23z"/>
<path d="M4641 2504 c0 -11 3 -14 6 -6 3 7 2 16 -1 19 -3 4 -6 -2 -5 -13z"/>
<path d="M5461 2474 c0 -11 3 -14 6 -6 3 7 2 16 -1 19 -3 4 -6 -2 -5 -13z"/>
<path d="M4631 2465 c0 -11 -9 -32 -18 -45 l-16 -25 24 22 c13 11 33 23 44 26
19 4 18 5 -2 6 -12 0 -24 9 -26 19 -4 14 -5 14 -6 -3z"/>
<path d="M4342 2400 c3 -8 20 -23 39 -34 35 -20 34 -18 -15 24 -17 15 -27 19
-24 10z"/>
<path d="M9825 2390 c27 -12 43 -12 25 0 -8 5 -22 9 -30 9 -10 0 -8 -3 5 -9z"/>
<path d="M9898 2393 c7 -3 16 -2 19 1 4 3 -2 6 -13 5 -11 0 -14 -3 -6 -6z"/>
<path d="M4565 2370 c-3 -5 -24 -15 -45 -21 -22 -7 -38 -14 -36 -17 8 -7 74
18 86 34 7 7 10 14 7 14 -3 0 -9 -4 -12 -10z"/>
<path d="M5490 2355 c0 -8 4 -14 9 -12 4 1 18 -9 30 -23 21 -24 21 -23 -1 12
-24 40 -38 48 -38 23z"/>
<path d="M4428 2343 c7 -3 16 -2 19 1 4 3 -2 6 -13 5 -11 0 -14 -3 -6 -6z"/>
<path d="M8640 2030 c-63 -27 -107 -49 -97 -50 9 0 17 -4 17 -10 0 -5 -21 -10
-46 -10 -49 0 -88 -15 -79 -31 4 -5 -3 -9 -14 -9 -12 0 -21 -7 -21 -15 0 -8 5
-15 11 -15 5 0 7 5 4 10 -3 6 1 10 9 10 20 0 21 -26 1 -34 -24 -9 -45 4 -46
28 0 21 0 21 -9 -2 -12 -28 -36 -38 -55 -22 -10 9 -15 9 -15 1 0 -6 -8 -11
-17 -11 -10 0 -57 -16 -105 -36 -60 -25 -88 -42 -88 -53 0 -12 -9 -16 -37 -15
-54 3 -79 -12 -79 -47 0 -33 -8 -30 181 -74 61 -13 121 -27 134 -31 16 -3 21
-8 14 -15 -7 -7 -25 -6 -55 1 l-45 12 -56 -59 -56 -58 261 -3 c184 -2 265 1
274 9 8 6 14 30 14 53 0 37 6 47 55 96 30 30 55 58 55 62 0 4 -46 -20 -102
-54 -116 -68 -128 -74 -128 -60 0 6 54 43 120 84 l120 73 0 163 c0 89 -1 162
-2 162 -2 -1 -55 -23 -118 -50z m-119 -106 c12 -14 14 -14 20 3 5 12 8 5 8
-22 l0 -40 -19 24 c-18 21 -20 21 -20 4 0 -12 -8 -19 -20 -20 -16 -1 -20 4
-20 33 0 27 4 34 19 34 10 0 25 -7 32 -16z m187 -50 c28 -32 28 -56 -1 -90
-47 -55 -127 -26 -127 46 0 75 76 101 128 44z m-498 -96 c0 -19 -15 -24 -25
-8 -3 6 -11 10 -16 10 -6 0 -7 -4 -4 -10 3 -5 2 -10 -4 -10 -13 0 -24 18 -16
29 3 5 19 9 35 9 22 -1 30 -6 30 -20z m112 12 c2 -6 2 -30 0 -55 -4 -39 -6
-43 -22 -35 -9 5 -20 6 -24 3 -3 -3 -6 1 -6 10 0 9 9 21 20 27 11 6 20 17 20
26 0 12 -4 13 -21 4 -24 -13 -34 -8 -26 15 7 17 53 21 59 5z m118 -4 c0 -7 -7
-19 -15 -26 -14 -11 -19 -7 -16 12 0 4 -6 5 -14 2 -8 -4 -15 -1 -15 4 0 10 19
18 48 21 6 0 12 -5 12 -13z m117 -2 c8 -21 -6 -32 -17 -14 -7 10 -10 11 -10 3
0 -7 -9 -13 -20 -13 -18 0 -27 19 -16 31 12 12 57 7 63 -7z m-467 -44 c0 -5
-2 -10 -4 -10 -3 0 -8 5 -11 10 -3 6 -1 10 4 10 6 0 11 -4 11 -10z m120 0 c0
-5 -6 -10 -12 -10 -9 0 -8 -3 2 -10 21 -13 7 -22 -24 -14 -32 8 -33 22 -3 34
30 12 37 12 37 0z m230 -20 c0 -26 -3 -29 -17 -22 -10 5 -24 7 -30 5 -23 -8
-13 27 10 37 34 14 37 12 37 -20z m120 20 c0 -5 -6 -10 -12 -11 -10 0 -10 -2
0 -6 6 -2 12 -12 12 -20 0 -11 -5 -13 -17 -8 -10 4 -24 8 -30 8 -22 1 -14 27
10 37 30 12 37 12 37 0z m-484 -36 c19 -15 19 -15 -1 -6 -11 5 -26 7 -32 5 -7
-3 -13 0 -13 6 0 16 23 13 46 -5z"/>
<path d="M6481 1972 c31 -28 42 -47 46 -79 5 -38 19 -52 53 -53 3 0 6 18 6 39
1 21 9 50 19 64 17 26 16 26 -12 33 -15 3 -53 12 -84 20 -31 8 -59 14 -63 14
-3 0 13 -17 35 -38z"/>
<path d="M6280 1821 c0 -20 51 -60 84 -66 46 -9 90 9 117 46 l20 29 -110 0
c-61 0 -111 -4 -111 -9z"/>
<path d="M6641 1826 c8 -9 163 -45 171 -40 4 3 13 14 18 25 10 18 7 19 -91 19
-56 0 -100 -2 -98 -4z"/>
<path d="M1700 1745 c0 -42 3 -55 15 -55 12 0 15 13 15 55 0 42 -3 55 -15 55
-12 0 -15 -13 -15 -55z"/>
<path d="M6654 1781 c22 -24 74 -36 108 -25 24 8 24 8 -97 38 -29 7 -29 7 -11
-13z"/>
<path d="M1760 1745 c0 -33 4 -45 15 -45 11 0 15 12 15 45 0 33 -4 45 -15 45
-11 0 -15 -12 -15 -45z"/>
<path d="M1820 1745 c0 -33 4 -45 15 -45 11 0 15 12 15 45 0 33 -4 45 -15 45
-11 0 -15 -12 -15 -45z"/>
<path d="M1180 1751 c0 -4 30 -11 68 -14 78 -8 353 -8 334 0 -6 2 -10 9 -6 14
3 5 -77 9 -195 9 -111 0 -201 -4 -201 -9z"/>
<path d="M2043 1745 c0 -12 19 -15 109 -15 84 0 113 4 124 15 14 13 2 15 -109
15 -103 0 -124 -2 -124 -15z"/>
<path d="M1912 1720 c0 -19 2 -27 5 -17 2 9 2 25 0 35 -3 9 -5 1 -5 -18z"/>
<path d="M7900 1710 c0 -5 5 -10 10 -10 6 0 10 5 10 10 0 6 -4 10 -10 10 -5 0
-10 -4 -10 -10z"/>
<path d="M7937 1699 c7 -7 15 -10 18 -7 3 3 -2 9 -12 12 -14 6 -15 5 -6 -5z"/>
<path d="M2336 1669 c-27 -6 -68 -23 -92 -40 -191 -131 -157 -411 61 -495 56
-21 154 -16 210 11 61 30 120 94 140 154 26 80 18 175 -21 237 -36 59 -114
120 -163 129 -75 12 -87 13 -135 4z m-106 -99 c0 -5 -4 -10 -10 -10 -5 0 -10
5 -10 10 0 6 5 10 10 10 6 0 10 -4 10 -10z m265 -29 c150 -116 57 -345 -129
-317 -105 16 -171 131 -135 235 6 17 15 31 19 31 4 0 27 -16 50 -35 73 -61 97
-35 35 38 -19 22 -35 44 -35 48 0 14 55 28 108 27 41 -1 61 -8 87 -27z m-265
-321 c0 -5 -2 -10 -4 -10 -3 0 -8 5 -11 10 -3 6 -1 10 4 10 6 0 11 -4 11 -10z"/>
<path d="M7345 1409 c-63 -12 -91 -25 -135 -65 -62 -56 -93 -125 -94 -204 -1
-152 104 -267 255 -278 88 -6 146 15 211 76 54 50 88 127 88 197 0 52 -31 139
-63 176 -66 77 -171 116 -262 98z m-115 -99 c0 -5 -4 -10 -10 -10 -5 0 -10 5
-10 10 0 6 5 10 10 10 6 0 10 -4 10 -10z m235 -16 c34 -16 86 -69 94 -94 3 -8
5 -38 5 -66 0 -61 -25 -109 -74 -142 l-34 -22 -16 53 c-21 68 -27 77 -45 70
-12 -4 -14 -18 -9 -69 8 -75 1 -79 -73 -43 -56 27 -97 94 -96 156 4 125 138
210 248 157z m-235 -328 c0 -3 -4 -8 -10 -11 -5 -3 -10 -1 -10 4 0 6 5 11 10
11 6 0 10 -2 10 -4z"/>
<path d="M6705 1399 c-65 -12 -92 -26 -141 -71 -70 -64 -89 -108 -89 -203 0
-70 4 -87 30 -134 31 -56 88 -106 148 -128 57 -21 156 -16 212 11 180 85 214
331 63 460 -60 51 -154 79 -223 65z m-125 -99 c0 -5 -5 -10 -11 -10 -5 0 -7 5
-4 10 3 6 8 10 11 10 2 0 4 -4 4 -10z m247 -21 c123 -60 125 -247 2 -309 -23
-12 -43 -20 -45 -17 -2 2 -7 31 -10 65 -6 50 -10 62 -24 62 -20 0 -30 -27 -30
-87 0 -24 -5 -43 -10 -43 -22 0 -68 30 -94 60 -72 86 -49 211 49 267 50 28
106 29 162 2z m-317 -159 c0 -5 -2 -10 -4 -10 -3 0 -8 5 -11 10 -3 6 -1 10 4
10 6 0 11 -4 11 -10z"/>
<path d="M7952 1356 c-40 -8 -66 -23 -106 -58 -71 -62 -100 -123 -100 -208 -2
-154 122 -280 274 -280 118 0 233 85 266 195 46 160 -52 325 -210 354 -33 6
-62 10 -65 10 -3 -1 -30 -6 -59 -13z m-92 -90 c0 -3 -4 -8 -10 -11 -5 -3 -10
-1 -10 4 0 6 5 11 10 11 6 0 10 -2 10 -4z m234 -20 c37 -16 68 -43 86 -76 20
-38 20 -112 -1 -155 -21 -44 -73 -95 -98 -96 -9 0 -28 -3 -44 -5 -65 -11 -154
41 -178 103 -13 34 -10 113 4 145 l12 28 48 -41 c28 -24 54 -39 62 -35 22 8
19 20 -20 66 -19 23 -35 45 -35 49 0 29 110 40 164 17z"/>
<path d="M130 490 l0 -60 60 0 60 0 0 60 0 60 -60 0 -60 0 0 -60z m100 35 c0
-8 -4 -15 -9 -15 -6 0 -11 -14 -13 -32 -4 -46 -28 -49 -28 -4 0 25 -4 36 -15
36 -8 0 -15 7 -15 15 0 11 11 15 40 15 29 0 40 -4 40 -15z"/>
<path d="M130 190 l0 -60 60 0 60 0 0 60 0 60 -60 0 -60 0 0 -60z m88 33 c2
-8 -5 -13 -17 -13 -14 0 -21 -6 -21 -20 0 -13 7 -20 20 -20 11 0 20 -5 20 -11
0 -6 -14 -9 -32 -7 -28 3 -33 7 -36 33 -5 43 52 77 66 38z"/>
</g>
</svg>
